<svg width="30" height="30" viewBox="0 0 30 30" fill="none" xmlns="http://www.w3.org/2000/svg">
<path d="M26.8826 29.1422L26.9136 29.0927L30 22.8279L20.9842 16.066L16.836 19.177C15.2717 19.0839 13.7957 18.4205 12.6875 17.3123C11.5794 16.2042 10.916 14.7282 10.8229 13.1638L13.9339 9.01568L7.1722 0L0.959774 3.06074L0.907322 3.0865L0.857836 3.11754C0.594656 3.28087 0.377659 3.50885 0.227503 3.77977C0.0773468 4.05068 -0.000967026 4.35552 9.53674e-06 4.66527V6.28181C9.53674e-06 9.39653 0.613501 12.4808 1.80545 15.3584C2.99741 18.236 4.74449 20.8507 6.94693 23.0531C9.14938 25.2556 11.7641 27.0026 14.6417 28.1946C17.5193 29.3865 20.6035 30 23.7183 30H25.3349C25.6446 30.001 25.9495 29.9227 26.2204 29.7725C26.4913 29.6224 26.7193 29.4054 26.8826 29.1422ZM23.7183 27.6849C11.9165 27.6849 2.31514 18.0835 2.31514 6.28181V4.97376L6.47245 2.92589L11.0401 9.01612L8.49718 12.4068V12.7927C8.49976 15.1021 9.41832 17.3162 11.0513 18.9492C12.6843 20.5822 14.8984 21.5007 17.2078 21.5033H17.5937L20.9843 18.9604L27.0742 23.5275L25.026 27.6849H23.7183Z" fill="white"/>
</svg>
