<svg width="10" height="10" viewBox="0 0 10 10" fill="none" xmlns="http://www.w3.org/2000/svg">
<path d="M4.73134 0.0636698C4.73063 0.0637727 4.72995 0.0639896 4.72931 0.064312L0.267975 2.32622C0.100416 2.4109 -0.0017633 2.56715 2.30445e-05 2.73651V7.26255C2.30445e-05 7.43192 0.102202 7.58816 0.267975 7.67097L4.73206 9.93649C4.89783 10.0212 5.10219 10.0212 5.26975 9.93649L9.73205 7.67253C9.89782 7.58785 10 7.43161 10 7.26411V2.7362C10 2.56683 9.89782 2.41059 9.73026 2.32591L5.27011 0.0635126C5.10466 -0.0210053 4.89864 -0.0211706 4.73339 0.0630168C4.73274 0.0633444 4.73205 0.0635658 4.73134 0.0636698Z" fill="black"/>
</svg>
