<svg width="15" height="15" viewBox="0 0 15 15" fill="none" xmlns="http://www.w3.org/2000/svg">
<path d="M7.49999 15C8.98335 15 10.4334 14.5601 11.6668 13.736C12.9001 12.9119 13.8614 11.7406 14.4291 10.3701C14.9968 8.99966 15.1453 7.49166 14.8559 6.0368C14.5665 4.58195 13.8522 3.24558 12.8033 2.19669C12.1068 1.50025 11.28 0.947806 10.3701 0.570898C9.46016 0.19399 8.48489 -1.45476e-06 7.49998 0C5.51086 2.93804e-06 3.60321 0.790181 2.19669 2.1967C0.790169 3.60323 -2.93802e-06 5.51088 0 7.5C2.93804e-06 9.48912 0.790181 11.3968 2.1967 12.8033C2.89152 13.5019 3.71801 14.0558 4.62831 14.4328C5.53862 14.8099 6.51468 15.0027 7.49999 15ZM7.49999 1.00265C11.0826 1.00265 13.9973 3.91733 13.9973 7.49997C13.9973 11.0826 11.0826 13.9973 7.49999 13.9973C3.91735 13.9973 1.00267 11.0826 1.00267 7.49997C1.00267 3.9173 3.91735 1.00265 7.49999 1.00265Z" fill="black"/>
</svg>
