<svg width="30" height="30" viewBox="0 0 30 30" fill="none" xmlns="http://www.w3.org/2000/svg">
<path d="M30 15.0929C30 6.75502 23.2809 0 15 0C6.71344 0 0 6.75502 0 15.0929C0 22.6243 5.48344 28.869 12.6562 30V19.4567H8.84719V15.0939H12.6562V11.7668C12.6562 7.9851 14.8922 5.89661 18.3197 5.89661C19.9613 5.89661 21.6797 6.19093 21.6797 6.19093V9.90473H19.785C17.925 9.90473 17.3438 11.0697 17.3438 12.263V15.0929H21.5034L20.835 19.4557H17.3438V29.9991C24.5109 28.868 30 22.6233 30 15.092V15.0929Z" fill="white"/>
</svg>
