<svg width="30" height="30" viewBox="0 0 30 30" fill="none" xmlns="http://www.w3.org/2000/svg">
<path d="M15 0C10.9223 0 10.4141 0.01969 8.81829 0.0871984C7.2159 0.165958 6.13202 0.414427 5.17565 0.785723C4.18927 1.17202 3.34917 1.6849 2.51938 2.51938C1.68396 3.34917 1.1664 4.18927 0.785723 5.17565C0.414427 6.13202 0.165958 7.2159 0.0871984 8.81829C0.0150019 10.4151 0 10.9223 0 15C0 19.0777 0.01969 19.5859 0.0871984 21.1817C0.165958 22.7794 0.414427 23.868 0.785723 24.8244C1.17202 25.8107 1.6849 26.6508 2.51938 27.4806C3.34917 28.316 4.18927 28.8336 5.17565 29.2143C6.13202 29.5809 7.22059 29.834 8.81829 29.9128C10.4151 29.985 10.9223 30 15 30C19.0777 30 19.5859 29.9803 21.1817 29.9128C22.7794 29.834 23.868 29.58 24.8244 29.2143C25.8107 28.828 26.6508 28.3151 27.4806 27.4806C28.316 26.6508 28.8336 25.8154 29.2143 24.8244C29.5809 23.868 29.834 22.7794 29.9128 21.1817C29.985 19.5849 30 19.0777 30 15C30 10.9223 29.9803 10.4141 29.9128 8.81829C29.834 7.22059 29.5799 6.12639 29.2143 5.17565C28.828 4.18927 28.3151 3.34917 27.4806 2.51938C26.6508 1.68396 25.8154 1.1664 24.8244 0.785723C23.868 0.414427 22.7794 0.165958 21.1817 0.0871984C19.5849 0.0150019 19.0777 0 15 0ZM15 2.70034C19.0046 2.70034 19.4827 2.72003 21.0654 2.78754C22.5253 2.85598 23.3204 3.09976 23.8483 3.30604C24.5524 3.57889 25.0447 3.90143 25.5773 4.42837C26.0995 4.95062 26.4221 5.44849 26.6949 6.15264C26.9012 6.68052 27.145 7.47562 27.2134 8.93549C27.2809 10.5182 27.3006 10.9973 27.3006 15.0009C27.3006 19.0046 27.2809 19.4837 27.2078 21.0664C27.129 22.5263 26.8852 23.3214 26.6799 23.8492C26.3958 24.5534 26.0789 25.0456 25.5557 25.5782C25.0278 26.1005 24.5253 26.423 23.8267 26.6958C23.3054 26.9021 22.4991 27.1459 21.0336 27.2143C19.4424 27.2819 18.9736 27.3015 14.9587 27.3015C10.9439 27.3015 10.476 27.2818 8.88299 27.2087C7.42312 27.13 6.6177 26.8862 6.08982 26.6808C5.37724 26.3967 4.88874 26.0798 4.36555 25.5566C3.83767 25.0288 3.502 24.5262 3.24322 23.8277C3.03319 23.3064 2.79316 22.5 2.71534 21.0345C2.6619 19.4621 2.63658 18.9746 2.63658 14.9784C2.63658 10.9842 2.6619 10.4957 2.71534 8.90361C2.79316 7.43812 3.03319 6.63364 3.24322 6.11045C3.502 5.39693 3.83861 4.90936 4.36555 4.38149C4.8878 3.85923 5.37724 3.52169 6.08982 3.25728C6.6177 3.05194 7.40343 2.80816 8.86892 2.73503C10.4601 2.67783 10.9289 2.65721 14.9381 2.65721L15 2.70034ZM15 7.30123C10.7423 7.30123 7.29935 10.7488 7.29935 15.0019C7.29935 19.2596 10.747 22.7025 15 22.7025C19.2577 22.7025 22.7006 19.2549 22.7006 15.0019C22.7006 10.7442 19.253 7.30123 15 7.30123ZM15 20.0022C12.2359 20.0022 9.99969 17.766 9.99969 15.0019C9.99969 12.2378 12.2359 10.0016 15 10.0016C17.7641 10.0016 20.0003 12.2378 20.0003 15.0019C20.0003 17.766 17.7641 20.0022 15 20.0022ZM24.8112 6.99369C24.8112 7.99037 24.0002 8.79485 23.0082 8.79485C22.0115 8.79485 21.207 7.98944 21.207 6.99369C21.207 6.00263 22.0171 5.19627 23.0082 5.19627C23.9993 5.19627 24.8112 6.00263 24.8112 6.99369Z" fill="white"/>
</svg>
