<svg width="104" height="104" viewBox="0 0 104 104" fill="none" xmlns="http://www.w3.org/2000/svg">
<path d="M104 0L0 0L0 104H104V0Z" fill="#0E1934"/>
<path d="M51.9058 36.4609L58.2949 40.1504L61.5344 38.2852L51.9058 32.7224L35.8228 42.0156L39.0459 43.8808L51.9058 36.4609Z" fill="white"/>
<path d="M64.7578 40.1504L51.906 47.5702L45.517 43.8807L42.2856 45.7459L51.906 51.3005L67.9973 42.0156L64.7578 40.1504Z" fill="white"/>
<path d="M38.4079 52.6341L35.1765 50.7689V61.8782L51.2596 71.1713V67.441L38.4079 60.013V52.6341Z" fill="white"/>
<path d="M35.1765 47.0385L48.0282 54.4583V61.8372L51.2596 63.7105V52.5931L35.1765 43.3081V47.0385Z" fill="white"/>
<path d="M62.1808 50.7688V47.0385L52.5522 52.5931V71.1712L55.7836 69.3061V54.4583L62.1808 50.7688Z" fill="white"/>
<path d="M65.4039 45.1733V60.0129L59.0149 63.7105V67.4409L68.6435 61.8781V43.3081L65.4039 45.1733Z" fill="white"/>
</svg>
